<!-- Generated by IcoMoon.io -->
<svg version="1.1" xmlns="http://www.w3.org/2000/svg" width="32" height="32" viewBox="0 0 32 32">
<title>loupe-svgrepo-com-2</title>
<path d="M31.155 27.076l-8.89-8.89c-0.545-0.545-1.269-0.845-2.040-0.845-0.391 0-0.77 0.078-1.12 0.225l-1.193-1.193c1.439-1.783 2.222-3.985 2.222-6.308 0-2.69-1.047-5.218-2.949-7.12-3.926-3.926-10.314-3.926-14.24 0s-3.926 10.314 0 14.24c1.902 1.902 4.43 2.949 7.12 2.949 2.323 0 4.525-0.783 6.308-2.222l1.193 1.193c-0.147 0.35-0.225 0.729-0.225 1.12 0 0.771 0.3 1.495 0.845 2.040l8.89 8.89c0.562 0.562 1.301 0.844 2.040 0.844s1.477-0.281 2.040-0.844c0.545-0.545 0.845-1.269 0.845-2.040s-0.3-1.495-0.845-2.040zM15.645 15.646c-1.491 1.491-3.472 2.312-5.58 2.312s-4.090-0.821-5.581-2.312c-3.077-3.077-3.077-8.084 0-11.161s8.084-3.077 11.161 0c1.491 1.491 2.312 3.473 2.312 5.581s-0.821 4.090-2.312 5.58zM20.225 21.226l-0.5-0.5c-0.134-0.134-0.207-0.311-0.207-0.5s0.073-0.366 0.207-0.5c0-0 0-0 0.001-0.001s0-0 0.001-0.001c0.134-0.133 0.311-0.207 0.5-0.207s0.367 0.074 0.5 0.207l0.5 0.5-1.001 1.001zM29.616 29.616c-0.276 0.276-0.725 0.276-1.001 0l-6.851-6.851 1.001-1.001 6.851 6.851c0.276 0.276 0.276 0.725 0 1.001z"></path>
</svg>
